<?xml version="1.0" standalone="no"?>
<!DOCTYPE svg PUBLIC "-//W3C//DTD SVG 20010904//EN"
 "http://www.w3.org/TR/2001/REC-SVG-20010904/DTD/svg10.dtd">
<svg version="1.0" xmlns="http://www.w3.org/2000/svg"
 width="512.000000pt" height="512.000000pt" viewBox="0 0 512.000000 512.000000"
 preserveAspectRatio="xMidYMid meet">

<g transform="translate(0.000000,512.000000) scale(0.100000,-0.100000)"
fill="#000000" stroke="none">
<path d="M2320 5104 c-141 -20 -281 -57 -420 -113 -124 -50 -307 -154 -366
-208 -34 -31 -36 -36 -31 -77 l6 -44 -68 -61 c-65 -57 -71 -60 -99 -50 -31 11
-64 1 -87 -26 -203 -238 -357 -561 -419 -880 -82 -423 -20 -900 164 -1254 88
-169 222 -304 520 -524 307 -227 323 -240 423 -337 55 -52 114 -116 133 -141
l34 -47 -15 -473 c-24 -777 -25 -739 8 -788 19 -28 44 -49 72 -62 42 -19 66
-20 398 -17 l353 3 41 27 c68 45 75 73 74 286 -2 198 -8 227 -50 248 -36 18
-41 32 -41 122 0 77 2 83 23 91 50 19 51 23 44 303 l-6 261 33 46 c44 59 191
202 277 269 37 29 138 104 225 168 370 269 499 402 599 617 244 527 232 1174
-32 1701 -260 519 -702 853 -1258 952 -129 22 -405 27 -535 8z m-194 -3166
c-3 -50 -6 -152 -6 -227 l0 -135 -47 45 c-88 84 -177 156 -338 274 -88 64
-164 121 -169 126 -6 5 106 9 278 9 l289 0 -7 -92z m716 -79 c3 -168 3 -171
-21 -192 -54 -50 -121 -140 -130 -175 -8 -27 -5 -225 9 -673 11 -348 20 -642
20 -651 0 -17 -18 -18 -232 -18 -128 0 -239 4 -247 9 -11 7 -9 149 13 872 15
475 26 894 26 932 l0 67 280 0 279 0 3 -171z m712 162 c-5 -4 -70 -53 -144
-107 -161 -117 -262 -198 -347 -278 l-63 -58 0 119 c0 66 -3 168 -7 226 l-6
107 288 0 c165 0 285 -4 279 -9z"/>
</g>
</svg>
